<svg id="Layer_1" data-name="Layer 1" xmlns="http://www.w3.org/2000/svg" viewBox="0 0 976.78 308.78"><defs><style>.cls-1,.cls-3{fill:#3ea1cb;}.cls-2,.cls-7{fill:#f68e37;}.cls-3{font-size:120.39px;font-family:DavidaOpti-Bold, DavidaOpti;font-weight:700;}.cls-4{letter-spacing:-0.07em;}.cls-5{letter-spacing:-0.01em;}.cls-6{letter-spacing:0em;}.cls-7{font-size:59.66px;font-family:BaskOldFace, Baskerville Old Face;font-weight:400;}.cls-8{fill:none;stroke:#3ea1cb;stroke-miterlimit:10;stroke-width:4px;}</style></defs><path class="cls-1" d="M355.76,555.33l-6.21-4.86A12.12,12.12,0,0,1,347,534.18l4.41-6.54a12.1,12.1,0,0,0-5.88-18.13l-7.42-2.71a12.11,12.11,0,0,1-7.5-14.68l2.17-7.6a12.1,12.1,0,0,0-11.21-15.4l-7.87-.28A12.1,12.1,0,0,1,302,457.18l-.28-7.87a12.11,12.11,0,0,0-15.41-11.21l-7.59,2.16a12.11,12.11,0,0,1-14.69-7.49l-2.7-7.42a12.1,12.1,0,0,0-18.13-5.89l-6.55,4.41a12.09,12.09,0,0,1-16.28-2.56l-4.87-6.21a12.09,12.09,0,0,0-19,0l-4.87,6.21a12.09,12.09,0,0,1-16.28,2.56l-6.55-4.41a12.1,12.1,0,0,0-18.13,5.89l-2.7,7.42a12.11,12.11,0,0,1-14.69,7.49l-7.59-2.16a12.11,12.11,0,0,0-15.41,11.21l-.28,7.86a12.1,12.1,0,0,1-11.66,11.67l-7.87.28a12.09,12.09,0,0,0-11.2,15.4l2.16,7.6a12.11,12.11,0,0,1-7.49,14.68l-7.42,2.71a12.1,12.1,0,0,0-5.89,18.13L65,534.18a12.12,12.12,0,0,1-2.57,16.29l-6.21,4.86a12.12,12.12,0,0,0,0,19l6.21,4.87A12.1,12.1,0,0,1,65,595.53l-4.41,6.54A12.09,12.09,0,0,0,66.5,620.2l7.41,2.71a12.11,12.11,0,0,1,7.5,14.68l-2.17,7.6A12.11,12.11,0,0,0,90.45,660.6l7.87.28A12.09,12.09,0,0,1,110,672.54l.28,7.87a12.1,12.1,0,0,0,15.41,11.2l7.59-2.16A12.11,12.11,0,0,1,148,696.94l2.7,7.42a12.1,12.1,0,0,0,18.13,5.89l6.55-4.41a12.1,12.1,0,0,1,16.28,2.57l4.87,6.2a12.09,12.09,0,0,0,19,0l4.87-6.2a12.1,12.1,0,0,1,16.28-2.57l6.55,4.41a12.1,12.1,0,0,0,18.13-5.89l2.7-7.42a12.12,12.12,0,0,1,14.69-7.49l7.59,2.16a12.1,12.1,0,0,0,15.41-11.2l.28-7.87a12.09,12.09,0,0,1,11.66-11.66l7.87-.28a12.11,12.11,0,0,0,11.21-15.41l-2.17-7.6a12.12,12.12,0,0,1,7.49-14.68l7.43-2.71a12.1,12.1,0,0,0,5.88-18.13l-4.4-6.54a12.09,12.09,0,0,1,2.56-16.28l6.21-4.87A12.1,12.1,0,0,0,355.76,555.33ZM206,682.43A117.57,117.57,0,1,1,323.57,564.86,117.57,117.57,0,0,1,206,682.43Z" transform="translate(-51.61 -410.47)"/><path class="cls-2" d="M209.07,463.33A73.83,73.83,0,0,0,188,466l-7.13,2V666.4l19.44,5.34V576.13h15.12v95.61l19.45-5.34V468l-7.14-2A74.34,74.34,0,0,0,209.07,463.33Zm-8.8,93.35v-73.4a55.47,55.47,0,0,1,15.12,0v73.4Z" transform="translate(-51.61 -410.47)"/><path class="cls-2" d="M305.79,580.75l-19.43.62a62.87,62.87,0,0,1-5.61,28.06,61.51,61.51,0,0,1-7.36,12.17V515.48A54.8,54.8,0,0,1,280.84,527a56.4,56.4,0,0,1,5.52,25.56l19.44.42a75.21,75.21,0,0,0-37.18-66.65L254,477.6V661.84l15.1-10a81.77,81.77,0,0,0,36.74-71.06Z" transform="translate(-51.61 -410.47)"/><path class="cls-2" d="M116.64,527.17a109,109,0,0,0-10.38,38.44l0,.43A91.81,91.81,0,0,0,112,601.75c3.8,10.19,14.48,27.68,27,40.15V613.4C133.58,602.71,133.2,603,130.2,595a72.14,72.14,0,0,1-4.27-18.82h20V650.2l19.44,8.9V475.19l-15.55,11.69A110.42,110.42,0,0,0,116.64,527.17Zm10.5,29.51a88.58,88.58,0,0,1,18.79-39.42v39.42Z" transform="translate(-51.61 -410.47)"/><text class="cls-3" transform="translate(330.99 162.15)"><tspan class="cls-4">A</tspan><tspan class="cls-5" x="59.84" y="0">Y</tspan><tspan x="130.27" y="0">OUB &amp; </tspan><tspan class="cls-5" x="499.63" y="0">C</tspan><tspan class="cls-6" x="566.57" y="0">O</tspan><tspan class="cls-7"><tspan x="0" y="71.59">AUTO CORPORATION</tspan></tspan></text><line class="cls-8" x1="326.78" y1="176.46" x2="970.72" y2="176.46"/></svg>