<svg id="Layer_1" data-name="Layer 1" xmlns="http://www.w3.org/2000/svg" viewBox="0 0 791 1018.74"><defs><style>.cls-1,.cls-3{fill:#3ea1cb;}.cls-2,.cls-8{fill:#f68e37;}.cls-3{font-size:141.26px;font-family:DavidaOpti-Bold, DavidaOpti;font-weight:700;}.cls-4{letter-spacing:-0.07em;}.cls-5{letter-spacing:-0.01em;}.cls-6{letter-spacing:0em;}.cls-7{letter-spacing:-0.01em;}.cls-8{font-size:70px;font-family:BaskOldFace, Baskerville Old Face;font-weight:400;}.cls-9{fill:none;stroke:#3ea1cb;stroke-miterlimit:10;stroke-width:4px;}</style></defs><path class="cls-1" d="M912.35,381.11l-15.9-12.47a31,31,0,0,1-6.58-41.72l11.3-16.76a31,31,0,0,0-15.08-46.44l-19-6.93a31,31,0,0,1-19.19-37.61l5.54-19.47a31,31,0,0,0-28.71-39.46l-20.15-.72a31,31,0,0,1-29.88-29.87L774,109.5a31,31,0,0,0-39.46-28.7L715,86.33a31,31,0,0,1-37.61-19.18l-6.93-19a31,31,0,0,0-46.44-15.08L607.3,44.34a31,31,0,0,1-41.72-6.57l-12.47-15.9a31,31,0,0,0-48.79,0l-12.46,15.9a31,31,0,0,1-41.72,6.58l-16.76-11.3a31,31,0,0,0-46.44,15.08l-6.94,19a31,31,0,0,1-37.61,19.19l-19.46-5.54a31,31,0,0,0-39.47,28.71l-.71,20.15a31,31,0,0,1-29.88,29.88l-20.15.72A31,31,0,0,0,204,199.71l5.54,19.47a31,31,0,0,1-19.19,37.61l-19,6.93a31,31,0,0,0-15.08,46.44l11.29,16.76A31,31,0,0,1,161,368.64l-15.9,12.47a31,31,0,0,0,0,48.79L161,442.36a31,31,0,0,1,6.58,41.72l-11.3,16.76a31,31,0,0,0,15.08,46.44l19,6.94a31,31,0,0,1,19.19,37.61L204,611.29a31,31,0,0,0,28.71,39.47l20.15.71a31,31,0,0,1,29.88,29.88l.71,20.15a31,31,0,0,0,39.47,28.71l19.46-5.54A31,31,0,0,1,380,743.86l6.94,19A31,31,0,0,0,433.38,778l16.76-11.29a31,31,0,0,1,41.72,6.57l12.46,15.9a31,31,0,0,0,48.79,0l12.47-15.9a31,31,0,0,1,41.72-6.57L624.06,778a31,31,0,0,0,46.44-15.08l6.93-19A31,31,0,0,1,715,724.68l19.47,5.53A31,31,0,0,0,774,701.5l.72-20.15a31,31,0,0,1,29.88-29.88l20.15-.71a31,31,0,0,0,28.7-39.47l-5.53-19.46a31,31,0,0,1,19.18-37.61l19-6.94a31,31,0,0,0,15.08-46.44l-11.29-16.76a31,31,0,0,1,6.57-41.72l15.9-12.46A31,31,0,0,0,912.35,381.11ZM528.72,706.68c-166.34,0-301.18-134.84-301.18-301.18S362.38,104.32,528.72,104.32,829.9,239.17,829.9,405.5,695.05,706.68,528.72,706.68Z" transform="translate(-133.22 -10)"/><path class="cls-2" d="M536.59,145.41a190.41,190.41,0,0,0-54.09,6.89l-18.27,5V665.62L514,679.31V434.37h38.74V679.31l49.81-13.69V157.35l-18.27-5A191.36,191.36,0,0,0,536.59,145.41ZM514,384.56v-188a139.4,139.4,0,0,1,21.72-1.32,142.6,142.6,0,0,1,17,1.32v188Z" transform="translate(-133.22 -10)"/><path class="cls-2" d="M784.35,446.23l-49.78,1.58a161.15,161.15,0,0,1-14.36,71.86,158.91,158.91,0,0,1-18.85,31.19V279a139.85,139.85,0,0,1,19.07,29.41,144.54,144.54,0,0,1,14.14,65.48L784.36,375a192.63,192.63,0,0,0-95.22-170.74L651.55,182v472l38.68-25.68a209.55,209.55,0,0,0,94.12-182Z" transform="translate(-133.22 -10)"/><path class="cls-2" d="M299.82,309a279.19,279.19,0,0,0-26.61,98.48l-.06,1.1A234.84,234.84,0,0,0,287.87,500c9.74,26.11,37.09,70.93,69,102.87v-73c-13.69-27.38-14.68-26.69-22.37-47.28a184.6,184.6,0,0,1-10.93-48.21h51.24V624.11l49.81,22.82V175.81l-39.86,29.93A282.9,282.9,0,0,0,299.82,309Zm26.88,75.6a227.16,227.16,0,0,1,48.14-101v101Z" transform="translate(-133.22 -10)"/><text class="cls-3" transform="translate(19.11 916.32)"><tspan class="cls-4">A</tspan><tspan class="cls-5" x="70.21" y="0">Y</tspan><tspan class="cls-6" x="152.84" y="0">OUB &amp; </tspan><tspan class="cls-7" x="586.23" y="0">C</tspan><tspan x="664.77" y="0">O</tspan><tspan class="cls-8"><tspan x="0" y="84">AUTO CORPORATION</tspan></tspan></text><line class="cls-9" x1="14.17" y1="933.11" x2="769.73" y2="933.11"/></svg>